{"title":"Terminator Genisys 2015 HQCAM x264-CPG","uid":12089837,"size":1978615708,"categoryP":"video","categoryS":"movies","magnet":"?xt=urn:btih:f46e8c10b4c9ab0eb4a25108d9e6727bd5ede7a7&amp;dn=Terminator+Genisys+2015+HQCAM+x264-CPG&amp;tr=udp%3A%2F%2Ftracker.openbittorrent.com%3A80&amp;tr=udp%3A%2F%2Fopen.demonii.com%3A1337&amp;tr=udp%3A%2F%2Ftracker.coppersurfer.tk%3A6969&amp;tr=udp%3A%2F%2Fexodus.desync.com%3A6969","seeders":30,"leechers":6,"uploader":"xxxlavalxxx","files":5,"time":1436008473,"description":" &lt;a href=&quot;http://extraimago.com/image/701&quot; rel=&quot;nofollow&quot; target=&quot;_NEW&quot;&gt;http://extraimago.com/image/701&lt;/a&gt;\n &lt;a href=&quot;\nhttp://www.imdb.com/title/tt1340138/&quot; rel=&quot;nofollow&quot; target=&quot;_NEW&quot;&gt;\nhttp://www.imdb.com/title/tt1340138/&lt;/a&gt;\n\n\nJohn Connor sends Kyle Reese back in time to protect Sarah Connor, but when he arrives in 1984, nothing is as he expected it to be.\n\nDirector: Alan Taylor\nWriters: Laeta Kalogridis, Patrick Lussier\nStars: Arnold Schwarzenegger, Jason Clarke, Emilia Clarke \nGenres: Action | Adventure | Sci-Fi | Thriller\nCountry: USA\nLanguage: English\n\n\nwhat a load of crap this movie is, without a doubt the worst terminator movie ever. even mini TV film was better then this crap. i should have wait for australian line audio by Hive but movie like this i dont really care Anyways....\n \nFirst of all  props to EVE for giving full Justice to HD tag lately. those who dont know HD stand for High Definition.\n\nNow lets talk about CAM, i use Spanish it was ok CAM but it was dark as hell, grainy, noisy, off perspective, little movements here n there nothing big though, bing bara po bara paa (minions.... . i went to work on it cut the the video in 2 parts.  most of the movie filmed in dark thatsway it was dark source,  i did what i can with it spend some extra time on it and did some intensive work, Now you can surely make it out of it... . those who had downloaded previous versions will see improvements in this one and will know why they call me Rated R.\nfew seconds are missing from start but nothing is big to hurt your story then there is scene in the middle where Arnold use his Shotgun and destroy Ted (poor tedy...  but nothing so biggy.\n\nThx to my man MRG for good HQ Audio. run through it with usual cleaning stuff got pretty good for CAM then synced to my video.\n\nHQ Stand for High Quality, 3 Samples included check it First. and FFS dont complain on CAMs, CAMs are CAMs either get yourself a NEW CAM or Dont Click on any Torrent with CAM or TS tag. find yourself a way to Cinema. pirates are not your servant its free take it or leave it. \n\nGeneral\nFormat                                   : Matroska\nFormat version                           : Version 4 / Version 2\nFile size                                : 1.80 GiB\nDuration                                 : 1h 55mn\nOverall bit rate mode                    : Variable\nOverall bit rate                         : 2 220 Kbps\nEncoded date                             : UTC 2015-07-03 21:49:38\nWriting application                      : mkvmerge v8.1.0 ('Psychedelic Postcard') 64bit\nWriting library                          : libebml v1.3.1 + libmatroska v1.4.2\nDURATION                                 : 01:55:55.296000000\nNUMBER_OF_FRAMES                         : 289804\nNUMBER_OF_BYTES                          : 222569472\n_STATISTICS_WRITING_APP                  : mkvmerge v8.1.0 ('Psychedelic Postcard') 64bit\n_STATISTICS_WRITING_DATE_UTC             : 2015-07-03 21:49:38\n_STATISTICS_TAGS                         : BPS DURATION NUMBER_OF_FRAMES NUMBER_OF_BYTES\n\nVideo\nID                                       : 1\nFormat                                   : AVC\nFormat/Info                              : Advanced Video Codec\nFormat profile                           : &lt;a class=&quot;__cf_email__&quot; href=&quot;/cdn-cgi/l/email-protection&quot; data-cfemail=&quot;6b23020c032b275f4559&quot;&gt;[email&amp;#160;protected]&lt;/a&gt;&lt;script data-cfhash='f9e31' type=&quot;text/javascript&quot;&gt;\n/* &lt;![CDATA[ */!function(){try{var t=&quot;currentScript&quot;in document?document.currentScript:function(){for(var t=document.getElementsByTagName(&quot;script&quot;),e=t.length;e--;)if(t[e].getAttribute(&quot;data-cfhash&quot;))return t[e]}();if(t&amp;&amp;t.previousSibling){var e,r,n,i,c=t.previousSibling,a=c.getAttribute(&quot;data-cfemail&quot;);if(a){for(e=&quot;&quot;,r=parseInt(a.substr(0,2),16),n=2;a.length-n;n+=2)i=parseInt(a.substr(n,2),16)^r,e+=String.fromCharCode(i);e=document.createTextNode(e),c.parentNode.replaceChild(e,c)}t.parentNode.removeChild(t);}}catch(u){}}()/* ]]&gt; */&lt;/script&gt;\nFormat settings, CABAC                   : Yes\nFormat settings, ReFrames                : 3 frames\nCodec ID                                 : V_MPEG4/ISO/AVC\nDuration                                 : 1h 55mn\nBit rate mode                            : Variable\nBit rate                                 : 1 950 Kbps\nMaximum bit rate                         : 40.0 Mbps\nWidth                                    : 712 pixels\nHeight                                   : 320 pixels\nDisplay aspect ratio                     : 2.225\nFrame rate                               : 29.917 fps\nColor space                              : YUV\nChroma subsampling                       : 4:2:0\nBit depth                                : 8 bits\nScan type                                : Progressive\nBits/(Pixel*Frame)                       : 0.286\nStream size                              : 1.55 GiB (86%)\nWriting library                          : x264 core 146 r2538 121396c\nEncoding settings                        : cabac=1 / ref=4 / deblock=1:-1:-1 / analyse=0x3:0x133 / me=umh / subme=9 / psy=1 / psy_rd=1.00:0.15 / mixed_ref=1 / me_range=18 / chroma_me=1 / trellis=2 / 8x8dct=1 / cqm=0 / deadzone=21,11 / fast_pskip=0 / chroma_qp_offset=-3 / threads=16 / lookahead_threads=1 / sliced_threads=0 / slices=4 / nr=0 / decimate=1 / interlaced=0 / bluray_compat=0 / constrained_intra=0 / bframes=3 / b_pyramid=1 / b_adapt=2 / b_bias=0 / direct=3 / weightb=1 / open_gop=0 / weightp=0 / keyint=299 / keyint_min=29 / scenecut=40 / intra_refresh=0 / rc_lookahead=40 / rc=abr / mbtree=1 / bitrate=1950 / ratetol=1.0 / qcomp=0.60 / qpmin=10 / qpmax=51 / qpstep=4 / vbv_maxrate=40000 / vbv_bufsize=30000 / nal_hrd=vbr / filler=0 / ip_ratio=1.40 / aq=1:1.00\nDefault                                  : Yes\nForced                                   : No\nColor primaries                          : BT.709-5, BT.1361, IEC 61966-2-4, SMPTE RP177\nTransfer characteristics                 : BT.709-5, BT.1361\nMatrix coefficients                      : BT.709-5, BT.1361, IEC 61966-2-4 709, SMPTE RP177\n\nAudio\nID                                       : 2\nFormat                                   : MPEG Audio\nFormat version                           : Version 1\nFormat profile                           : Layer 3\nMode                                     : Joint stereo\nMode extension                           : MS Stereo\nCodec ID                                 : A_MPEG/L3\nCodec ID/Hint                            : MP3\nDuration                                 : 1h 55mn\nBit rate mode                            : Constant\nBit rate                                 : 256 Kbps\nChannel(s)                               : 2 channels\nSampling rate                            : 48.0 KHz\nCompression mode                         : Lossy\nDelay relative to video                  : 16ms\nStream size                              : 212 MiB (12%)\nWriting library                          : LAME\nDefault                                  : Yes\nForced                                   : No\n\n &lt;a href=&quot;\nhttp://extraimago.com/image/7XZ&quot; rel=&quot;nofollow&quot; target=&quot;_NEW&quot;&gt;\nhttp://extraimago.com/image/7XZ&lt;/a&gt; &lt;a href=&quot;\nhttp://extraimago.com/image/7Xe&quot; rel=&quot;nofollow&quot; target=&quot;_NEW&quot;&gt;\nhttp://extraimago.com/image/7Xe&lt;/a&gt; &lt;a href=&quot;\nhttp://extraimago.com/image/7X4&quot; rel=&quot;nofollow&quot; target=&quot;_NEW&quot;&gt;\nhttp://extraimago.com/image/7X4&lt;/a&gt; &lt;a href=&quot;\nhttp://extraimago.com/image/7XB&quot; rel=&quot;nofollow&quot; target=&quot;_NEW&quot;&gt;\nhttp://extraimago.com/image/7XB&lt;/a&gt; &lt;a href=&quot;\nhttp://extraimago.com/image/7XC&quot; rel=&quot;nofollow&quot; target=&quot;_NEW&quot;&gt;\nhttp://extraimago.com/image/7XC&lt;/a&gt; &lt;a href=&quot;\nhttp://extraimago.com/image/7XY&quot; rel=&quot;nofollow&quot; target=&quot;_NEW&quot;&gt;\nhttp://extraimago.com/image/7XY&lt;/a&gt; &lt;a href=&quot;\nhttp://extraimago.com/image/7Xp&quot; rel=&quot;nofollow&quot; target=&quot;_NEW&quot;&gt;\nhttp://extraimago.com/image/7Xp&lt;/a&gt; &lt;a href=&quot;\nhttp://extraimago.com/image/7Xr&quot; rel=&quot;nofollow&quot; target=&quot;_NEW&quot;&gt;\nhttp://extraimago.com/image/7Xr&lt;/a&gt;","torrent":{"xt":"urn:btih:f46e8c10b4c9ab0eb4a25108d9e6727bd5ede7a7","amp;dn":"Terminator+Genisys+2015+HQCAM+x264-CPG","amp;tr":["udp%3A%2F%2Ftracker.openbittorrent.com%3A80","udp%3A%2F%2Fopen.demonii.com%3A1337","udp%3A%2F%2Ftracker.coppersurfer.tk%3A6969","udp%3A%2F%2Fexodus.desync.com%3A6969"],"infoHash":"f46e8c10b4c9ab0eb4a25108d9e6727bd5ede7a7","infoHashBuffer":{"type":"Buffer","data":[244,110,140,16,180,201,171,14,180,162,81,8,217,230,114,123,213,237,231,167]},"announce":[],"urlList":[]}}